<svg width="36" height="37" viewBox="0 0 36 37" fill="none" xmlns="http://www.w3.org/2000/svg">
<g clip-path="url(#clip0_342_234)">
<path d="M36 18.8008C36 8.85966 27.9411 0.800781 18 0.800781C8.05887 0.800781 0 8.85966 0 18.8008C0 28.7419 8.05887 36.8008 18 36.8008C27.9411 36.8008 36 28.7419 36 18.8008Z" fill="#FEF0C7"/>
<path d="M17.4328 14.4965H19.6819L22.1483 12.0226C22.218 11.9523 22.3009 11.8965 22.3923 11.8585C22.4836 11.8204 22.5816 11.8008 22.6806 11.8008C22.7795 11.8008 22.8775 11.8204 22.9689 11.8585C23.0602 11.8965 23.1431 11.9523 23.2128 12.0226L25.147 13.9642C25.2866 14.1047 25.365 14.2947 25.365 14.4927C25.365 14.6908 25.2866 14.8808 25.147 15.0213L23.4302 16.7455H17.4328V18.2449C17.4328 18.4437 17.3538 18.6344 17.2132 18.775C17.0727 18.9156 16.882 18.9945 16.6831 18.9945C16.4843 18.9945 16.2936 18.9156 16.153 18.775C16.0125 18.6344 15.9335 18.4437 15.9335 18.2449V15.9958C15.9335 15.5982 16.0914 15.2168 16.3726 14.9356C16.6538 14.6545 17.0352 14.4965 17.4328 14.4965ZM12.9348 18.2449V21.2436L11.218 22.9603C11.0784 23.1008 11 23.2908 11 23.4889C11 23.6869 11.0784 23.8769 11.218 24.0174L13.1522 25.959C13.2219 26.0293 13.3048 26.0851 13.3961 26.1231C13.4875 26.1612 13.5855 26.1808 13.6844 26.1808C13.7834 26.1808 13.8814 26.1612 13.9727 26.1231C14.0641 26.0851 14.147 26.0293 14.2167 25.959L17.4328 22.7429H20.4315C20.6304 22.7429 20.821 22.6639 20.9616 22.5234C21.1022 22.3828 21.1812 22.1921 21.1812 21.9933V21.2436H21.9309C22.1297 21.2436 22.3204 21.1646 22.461 21.024C22.6016 20.8834 22.6806 20.6927 22.6806 20.4939V19.7442H23.4302C23.6291 19.7442 23.8197 19.6652 23.9603 19.5246C24.1009 19.3841 24.1799 19.1934 24.1799 18.9945V18.2449H18.9322V18.9945C18.9322 19.3922 18.7742 19.7736 18.493 20.0548C18.2118 20.3359 17.8305 20.4939 17.4328 20.4939H15.9335C15.5358 20.4939 15.1544 20.3359 14.8733 20.0548C14.5921 19.7736 14.4341 19.3922 14.4341 18.9945V16.7455L12.9348 18.2449Z" fill="#FB9103"/>
</g>
<defs>
<clipPath id="clip0_342_234">
<rect width="36" height="36" fill="white" transform="translate(0 0.800781)"/>
</clipPath>
</defs>
</svg>
