<svg width="36" height="37" viewBox="0 0 36 37" fill="none" xmlns="http://www.w3.org/2000/svg">
<g clip-path="url(#clip0_270_1722)">
<path d="M36 18.5781C36 8.637 27.9411 0.578125 18 0.578125C8.05887 0.578125 0 8.637 0 18.5781C0 28.5193 8.05887 36.5781 18 36.5781C27.9411 36.5781 36 28.5193 36 18.5781Z" fill="#FCE7F6"/>
<path d="M17.835 13.8508C19.6478 13.8508 21.3863 14.5709 22.6681 15.8528C23.9499 17.1346 24.67 18.8731 24.67 20.6858C24.67 22.4986 23.9499 24.2371 22.6681 25.5189C21.3863 26.8007 19.6478 27.5208 17.835 27.5208C16.0222 27.5208 14.2837 26.8007 13.0019 25.5189C11.7201 24.2371 11 22.4986 11 20.6858C11 18.8731 11.7201 17.1346 13.0019 15.8528C14.2837 14.5709 16.0222 13.8508 17.835 13.8508ZM17.835 15.5596C16.4754 15.5596 15.1716 16.0997 14.2102 17.061C13.2488 18.0224 12.7088 19.3263 12.7088 20.6858C12.7088 22.0454 13.2488 23.3493 14.2102 24.3106C15.1716 25.272 16.4754 25.8121 17.835 25.8121C19.1946 25.8121 20.4984 25.272 21.4598 24.3106C22.4212 23.3493 22.9613 22.0454 22.9613 20.6858C22.9613 19.3263 22.4212 18.0224 21.4598 17.061C20.4984 16.0997 19.1946 15.5596 17.835 15.5596ZM17.835 16.8411L18.9645 19.1309L21.4917 19.4982L19.6634 21.2796L20.0948 23.7966L17.835 22.6082L15.5752 23.7958L16.0066 21.2796L14.1783 19.4974L16.7055 19.13L17.835 16.8411ZM22.9613 9.57897V12.1421L21.7967 13.1144C20.8307 12.6067 19.7755 12.2907 18.6894 12.1839V9.57897H22.9613ZM16.9806 9.57812V12.1839C15.8949 12.2906 14.84 12.6062 13.8741 13.1135L12.7088 12.1421V9.57897L16.9806 9.57812Z" fill="#C11574"/>
</g>
<defs>
<clipPath id="clip0_270_1722">
<rect width="36" height="36" fill="white" transform="translate(0 0.578125)"/>
</clipPath>
</defs>
</svg>
