<svg width="36" height="37" viewBox="0 0 36 37" fill="none" xmlns="http://www.w3.org/2000/svg">
<g clip-path="url(#clip0_270_1719)">
<path d="M36 18.5781C36 8.637 27.9411 0.578125 18 0.578125C8.05887 0.578125 0 8.637 0 18.5781C0 28.5193 8.05887 36.5781 18 36.5781C27.9411 36.5781 36 28.5193 36 18.5781Z" fill="#D1E9FF"/>
<path d="M26 24.5781H12V23.5781H25V16.5781H26V24.5781Z" fill="#0086C9"/>
<path d="M23 14.5781V21.5781H11V14.5781H23ZM24 13.5781H10V22.5781H24V13.5781Z" fill="#0086C9"/>
<path d="M13 16.5781H12V19.5781H13V20.5781H17C16.337 20.5781 15.7011 20.3147 15.2322 19.8459C14.7634 19.377 14.5 18.7411 14.5 18.0781C14.5 17.4151 14.7634 16.7792 15.2322 16.3103C15.7011 15.8415 16.337 15.5781 17 15.5781H13V16.5781ZM21 16.5781V15.5781H17C17.663 15.5781 18.2989 15.8415 18.7678 16.3103C19.2366 16.7792 19.5 17.4151 19.5 18.0781C19.5 18.7411 19.2366 19.377 18.7678 19.8459C18.2989 20.3147 17.663 20.5781 17 20.5781H21V19.5781H22V16.5781H21Z" fill="#0086C9"/>
</g>
<defs>
<clipPath id="clip0_270_1719">
<rect width="36" height="36" fill="white" transform="translate(0 0.578125)"/>
</clipPath>
</defs>
</svg>
