<svg width="14" height="15" viewBox="0 0 14 15" fill="none" xmlns="http://www.w3.org/2000/svg">
<path d="M8.95456 10.2081L9.69831 9.46432L7.52539 7.29141V4.22891H6.47539V7.72891L8.95456 10.2081ZM7.00039 13.3289C6.22864 13.3289 5.50341 13.1831 4.8247 12.8914C4.14599 12.5997 3.55143 12.1987 3.04102 11.6883C2.5306 11.1779 2.12956 10.5826 1.83789 9.90241C1.54622 9.22224 1.40039 8.4955 1.40039 7.7222C1.40039 6.94889 1.54622 6.22196 1.83789 5.54141C2.12956 4.86085 2.5306 4.2678 3.04102 3.76224C3.55143 3.25668 4.14672 2.85807 4.82689 2.56641C5.50706 2.27474 6.23379 2.12891 7.0071 2.12891C7.7804 2.12891 8.50738 2.27591 9.18804 2.56991C9.86859 2.86391 10.4606 3.26291 10.9641 3.76691C11.4676 4.27091 11.8661 4.86357 12.1598 5.54491C12.4535 6.22624 12.6004 6.95424 12.6004 7.72891C12.6004 8.50066 12.4546 9.22589 12.1629 9.90459C11.8712 10.5833 11.4726 11.1779 10.9671 11.6883C10.4615 12.1987 9.86781 12.5997 9.18599 12.8914C8.50418 13.1831 7.77564 13.3289 7.00039 13.3289ZM7.00739 12.2789C8.26613 12.2789 9.338 11.8341 10.223 10.9445C11.1079 10.0549 11.5504 8.98074 11.5504 7.72191C11.5504 6.46317 11.1079 5.3913 10.223 4.50628C9.338 3.62136 8.26613 3.17891 7.00739 3.17891C5.74856 3.17891 4.67435 3.62136 3.78477 4.50628C2.89518 5.3913 2.45039 6.46317 2.45039 7.72191C2.45039 8.98074 2.89518 10.0549 3.78477 10.9445C4.67435 11.8341 5.74856 12.2789 7.00739 12.2789Z" fill="#667084"/>
</svg>
