<svg width="808" height="440" viewBox="0 0 808 440" fill="none" xmlns="http://www.w3.org/2000/svg">
<g clip-path="url(#clip0_26_1354)">
<path d="M272.718 243.773L346.838 357.907L378.707 337.211L304.587 223.076L272.718 243.773Z" fill="white" stroke="black" stroke-width="3" stroke-miterlimit="10"/>
<path d="M377.46 67L185.1 202.88L309.14 202.34L437.95 91.79L377.46 67Z" fill="white" stroke="black" stroke-width="3" stroke-miterlimit="10"/>
<path d="M339.33 436.76L552.05 365.38L572.25 274.52L401.93 334.48L339.33 436.76Z" fill="white" stroke="black" stroke-width="3" stroke-miterlimit="10"/>
<path d="M298.61 211.38C337.1 164.8 505.61 32.38 568.61 15.38C638.21 -3.39996 744.61 -1.61996 805.61 13.38C794.61 57.38 742.35 181.38 674.35 222.38C551.78 296.28 430.61 332.38 383.61 345.38L298.61 211.38Z" fill="white" stroke="black" stroke-width="3" stroke-miterlimit="10"/>
<path d="M255.283 277.616L311.38 363.999L339.056 346.026L282.959 259.643L255.283 277.616Z" fill="url(#paint0_linear_26_1354)" stroke="black" stroke-width="4" stroke-miterlimit="10"/>
<path d="M181.84 415.48L288.48 355.63" stroke="black" stroke-width="1.5" stroke-miterlimit="10"/>
<path d="M180.15 413.04L286.75 353.29L289.87 359.07L183.26 418.82L180.15 413.04Z" fill="url(#paint1_linear_26_1354)" stroke="black" stroke-width="1.5" stroke-miterlimit="10"/>
<path d="M140.6 420.83L280.93 342.08" stroke="black" stroke-width="1.5" stroke-miterlimit="10"/>
<path d="M138.95 418.41L279.36 339.7L282.48 345.48L142.06 424.18L138.95 418.41Z" fill="url(#paint2_linear_26_1354)" stroke="black" stroke-width="1.5" stroke-miterlimit="10"/>
<path d="M120.16 392.85L260.64 313.98" stroke="black" stroke-width="1.5" stroke-miterlimit="10"/>
<path d="M118.48 390.42L259.04 311.64L262.11 317.34L121.56 396.12L118.48 390.42Z" fill="url(#paint3_linear_26_1354)" stroke="black" stroke-width="1.5" stroke-miterlimit="10"/>
<path d="M140.63 362.44L252.56 299.6" stroke="black" stroke-width="1.5" stroke-miterlimit="10"/>
<path d="M138.99 360.06L250.98 297.28L254.06 302.98L142.06 365.75L138.99 360.06Z" fill="url(#paint4_linear_26_1354)" stroke="black" stroke-width="1.5" stroke-miterlimit="10"/>
<path d="M99.1104 423.83L269.71 328.06" stroke="black" stroke-width="1.5" stroke-miterlimit="10"/>
<path d="M97.4302 421.4L268.03 325.78L271.1 331.48L100.5 427.1L97.4302 421.4Z" fill="url(#paint5_linear_26_1354)" stroke="black" stroke-width="1.5" stroke-miterlimit="10"/>
<path d="M805.57 12.9C782.09 9.49 754.61 6.38 723.61 3.38L769.51 24.53L427.73 226.25L433.03 235.14L776.6 32.36C776.6 49.38 777.6 68.38 777.6 88.38C785.6 72.38 801.82 23.3 805.56 12.9H805.57Z" fill="url(#paint6_radial_26_1354)" stroke="black" stroke-width="3" stroke-miterlimit="10"/>
<path d="M558.83 192.31C583.33 178.05 607.97 164.07 632.5 149.87C635.45 154.96 636.93 157.5 639.88 162.59C646.34 173.72 653.08 177.08 660.59 172.11C661.56 171.46 662.56 170.65 663.57 169.67C667.2 166.12 668.83 162.59 668.32 159.24C667.81 155.9 665.98 151.46 662.8 145.93C659.54 140.25 653.67 137.88 645.48 138.43C635.04 139.13 624.66 141.62 614.58 144.04C602.6 146.91 594.07 148.66 590.17 148.9C581.05 150.94 569.12 151.08 560.16 148.18C551.75 145.46 544.59 141.15 538.93 135.15C533.27 129.15 528.08 121.75 523.23 113.49C518.68 105.76 514.93 95.2 514.11 86.18C513.28 77.11 514.49 68.06 517.81 59.31C520.97 50.96 526.82 41.58 533.35 35.45C541.37 27.91 551.71 23.31 561.61 19.48C564.26 18.46 566.59 17.89 568.08 17.35C599.33 5.97002 637.25 1.47002 670.6 1.02002C678.66 15.92 686.72 30.81 694.79 45.71C669.82 55.62 645.13 66.07 620.62 77.07C618.2 72.87 617 70.77 614.58 66.57C611.94 61.98 608.73 59.04 604.98 57.73C601.22 56.41 597.64 56.43 594.3 57.81C591.39 59.02 589.23 60.95 587.8 63.63C586.37 66.31 586.22 69.06 587.21 71.83C587.68 73.14 588.21 74.34 588.83 75.39C592.12 81.06 597.01 84.33 603.67 85.02C610.33 85.71 617.94 84.98 626.77 82.73C635.6 80.49 643.51 78.35 650.27 76.43C663.18 73.06 676.72 71.09 689.92 71.12C698.71 71.14 709.7 72.61 717.87 76.46C725.11 79.87 730.56 84.71 734.43 91.55C738.2 98.22 740.43 106.6 741.33 117.08C742.43 129.85 739.56 142.86 734.35 154.54C728.84 166.87 721.88 178.74 713.07 189.02C703.68 199.99 693.14 210.98 682.45 219.44C660.87 236.52 630.63 249.23 603.47 259.67C588.61 237.22 573.74 214.78 558.87 192.34L558.83 192.31Z" fill="#0C2C59" stroke="black" stroke-width="2" stroke-miterlimit="10"/>
<path d="M309.46 202.85C331.26 183.44 353.06 164.04 374.86 144.63L412.42 203.38C425.23 194.82 438.04 186.27 450.85 177.71C437.64 157.15 424.43 136.59 411.23 116.03C433.55 96.37 455.27 80.24 480.34 64.05C522.5 128.89 564.66 193.73 606.82 258.56C579.86 273.69 555.11 284.41 526.03 294.71C511.3 271.78 496.57 248.86 481.84 225.93C468.12 233.15 454.41 240.37 440.69 247.59L481.01 310.65C452.83 320.63 424.64 330.6 396.46 340.58L309.47 202.84L309.46 202.85Z" fill="#0C2C59" stroke="black" stroke-width="2" stroke-miterlimit="10"/>
</g>
<defs>
<linearGradient id="paint0_linear_26_1354" x1="280.561" y1="321.406" x2="313.771" y2="302.236" gradientUnits="userSpaceOnUse">
<stop stop-color="#F6BA1E"/>
<stop offset="0.08" stop-color="#FFC11F"/>
<stop offset="1" stop-color="#DC2806"/>
</linearGradient>
<linearGradient id="paint1_linear_26_1354" x1="180.59" y1="386.06" x2="290.31" y2="386.06" gradientUnits="userSpaceOnUse">
<stop stop-color="#F8BA09"/>
<stop offset="1" stop-color="#E25822"/>
</linearGradient>
<linearGradient id="paint2_linear_26_1354" x1="139.29" y1="381.94" x2="282.82" y2="381.94" gradientUnits="userSpaceOnUse">
<stop stop-color="#F8BA09"/>
<stop offset="1" stop-color="#E25822"/>
</linearGradient>
<linearGradient id="paint3_linear_26_1354" x1="118.83" y1="353.88" x2="262.46" y2="353.88" gradientUnits="userSpaceOnUse">
<stop stop-color="#F8BA09"/>
<stop offset="1" stop-color="#E25822"/>
</linearGradient>
<linearGradient id="paint4_linear_26_1354" x1="139.32" y1="331.52" x2="254.39" y2="331.52" gradientUnits="userSpaceOnUse">
<stop stop-color="#F19A11"/>
<stop offset="1" stop-color="#E25822"/>
</linearGradient>
<linearGradient id="paint5_linear_26_1354" x1="97.8402" y1="376.44" x2="271.51" y2="376.44" gradientUnits="userSpaceOnUse">
<stop stop-color="#F8BA09"/>
<stop offset="1" stop-color="#E25822"/>
</linearGradient>
<radialGradient id="paint6_radial_26_1354" cx="0" cy="0" r="1" gradientUnits="userSpaceOnUse" gradientTransform="translate(616.65 119.26) scale(156.71 156.71)">
<stop stop-color="#F6BA1E"/>
<stop offset="0.08" stop-color="#FFC11F"/>
<stop offset="1" stop-color="#DC2806"/>
</radialGradient>
<clipPath id="clip0_26_1354">
<rect width="807.6" height="439.49" fill="white"/>
</clipPath>
</defs>
</svg>
