<svg width="18" height="21" viewBox="0 0 18 21" fill="none" xmlns="http://www.w3.org/2000/svg">
<path d="M4.965 9.0112C6.045 11.3695 7.785 13.2945 9.9075 14.5029L11.5575 12.6695C11.76 12.4445 12.06 12.3695 12.3225 12.4695C13.1625 12.7779 14.07 12.9445 15 12.9445C15.4125 12.9445 15.75 13.3195 15.75 13.7779V16.6862C15.75 17.1445 15.4125 17.5195 15 17.5195C7.9575 17.5195 2.25 11.1779 2.25 3.35286C2.25 2.89453 2.5875 2.51953 3 2.51953H5.625C6.0375 2.51953 6.375 2.89453 6.375 3.35286C6.375 4.39453 6.525 5.39453 6.8025 6.32786C6.885 6.61953 6.825 6.94453 6.615 7.17786L4.965 9.0112Z" fill="#FBFCFC"/>
</svg>
