<svg width="14" height="15" viewBox="0 0 14 15" fill="none" xmlns="http://www.w3.org/2000/svg">
<path fill-rule="evenodd" clip-rule="evenodd" d="M5.01842 3.12624C5.26456 2.84229 5.56892 2.61463 5.91084 2.45872C6.25276 2.30281 6.62422 2.2223 7 2.22266C7.79158 2.22266 8.50092 2.57266 8.98159 3.12624C9.35649 3.09947 9.73277 3.15371 10.0849 3.28526C10.4369 3.41681 10.7566 3.62261 11.0221 3.88866C11.288 4.15411 11.4938 4.47367 11.6253 4.82564C11.7569 5.17761 11.8111 5.55377 11.7845 5.92857C12.0683 6.17477 12.2959 6.47916 12.4517 6.82107C12.6075 7.16298 12.6879 7.53442 12.6875 7.91016C12.6879 8.28594 12.6073 8.6574 12.4514 8.99932C12.2955 9.34123 12.0679 9.6456 11.7839 9.89174C11.8106 10.2665 11.7563 10.6427 11.6247 10.9947C11.4932 11.3466 11.2874 11.6662 11.0215 11.9317C10.756 12.1976 10.4365 12.4033 10.0845 12.5349C9.73255 12.6664 9.35639 12.7207 8.98159 12.6941C8.73544 12.978 8.43108 13.2057 8.08916 13.3616C7.74725 13.5175 7.37579 13.598 7 13.5977C6.62422 13.598 6.25276 13.5175 5.91084 13.3616C5.56892 13.2057 5.26456 12.978 5.01842 12.6941C4.64355 12.7209 4.26731 12.6668 3.91522 12.5353C3.56314 12.4039 3.24347 12.1982 2.97792 11.9322C2.7119 11.6667 2.50613 11.3471 2.37458 10.995C2.24302 10.6429 2.18877 10.2666 2.2155 9.89174C1.93166 9.64554 1.70411 9.34116 1.5483 8.99924C1.39249 8.65733 1.31207 8.2859 1.3125 7.91016C1.3125 7.11857 1.6625 6.40924 2.21609 5.92857C2.1894 5.55376 2.24368 5.1776 2.37523 4.82562C2.50678 4.47364 2.71253 4.15409 2.9785 3.88866C3.24393 3.62268 3.56348 3.41694 3.91546 3.28539C4.26744 3.15383 4.64361 3.09956 5.01842 3.12624ZM9.10583 6.85199C9.14083 6.80535 9.16616 6.75219 9.18032 6.69563C9.19448 6.63906 9.19719 6.58024 9.18829 6.52261C9.17939 6.46499 9.15906 6.40972 9.1285 6.36006C9.09794 6.31041 9.05776 6.26736 9.01032 6.23345C8.96288 6.19955 8.90914 6.17547 8.85226 6.16262C8.79539 6.14978 8.73652 6.14844 8.67911 6.15868C8.62171 6.16891 8.56693 6.19052 8.518 6.22223C8.46906 6.25394 8.42696 6.29511 8.39417 6.34332L6.5065 8.98582L5.55917 8.03849C5.47623 7.96121 5.36654 7.91914 5.2532 7.92114C5.13985 7.92314 5.03171 7.96905 4.95156 8.04921C4.8714 8.12937 4.82548 8.23751 4.82348 8.35085C4.82148 8.46419 4.86355 8.57389 4.94083 8.65682L6.25333 9.96932C6.29825 10.0142 6.35239 10.0488 6.41199 10.0706C6.4716 10.0925 6.53526 10.1011 6.59853 10.0959C6.6618 10.0907 6.72318 10.0717 6.77841 10.0404C6.83364 10.0091 6.88138 9.96612 6.91833 9.91449L9.10583 6.85199Z" fill="#12B669"/>
</svg>
