<?xml version="1.0" encoding="iso-8859-1"?>
<!-- Uploaded to: SVG Repo, www.svgrepo.com, Generator: SVG Repo Mixer Tools -->
<svg version="1.1" id="Layer_1" xmlns="http://www.w3.org/2000/svg" xmlns:xlink="http://www.w3.org/1999/xlink" 
	 viewBox="0 0 509.287 509.287" xml:space="preserve">
<circle style="fill:#F0582F;" cx="254.644" cy="254.644" r="254.644"/>
<path style="fill:#646B79;" d="M457.07,119.015c0-9.833-7.799-17.632-17.632-17.632H69.849c-9.833,0-17.632,7.799-17.632,17.632
	v219.041h404.514V119.015H457.07z"/>
<path style="fill:#FCFCFD;" d="M52.217,338.056v42.384c0,9.833,7.799,17.632,17.632,17.632h369.589
	c9.833,0,17.632-7.799,17.632-17.632v-42.384H52.217z"/>
<rect x="73.24" y="121.049" style="fill:#6EB1E1;" width="362.808" height="197.679"/>
<rect x="199.375" y="398.072" style="fill:#DEDEDF;" width="110.199" height="56.964"/>
<path style="fill:#FCFCFD;" d="M316.016,455.036H193.272c-15.936,0-29.16,12.885-29.16,29.16l0,0h180.726l0,0
	C345.176,468.26,331.952,455.036,316.016,455.036z"/>
<circle style="fill:#FFFFFC;" cx="254.644" cy="210.903" r="65.441"/>
<path style="fill:#F0582F;" d="M292.281,201.748l-50.183-32.551c-7.46-4.747-16.954,0.678-16.954,9.155v64.763
	c0,8.816,9.494,13.902,16.954,9.155l50.183-32.551C299.062,215.989,299.062,206.156,292.281,201.748z"/>
<path style="fill:#F1F3F7;" d="M396.037,291.264H113.25c-2.034,0-4.069,1.695-4.069,4.069c0,2.034,1.695,4.069,4.069,4.069h282.787
	c2.034,0,4.069-1.695,4.069-4.069C400.106,293.298,398.411,291.264,396.037,291.264z"/>
<path style="fill:#F8B517;" d="M159.025,291.264H113.25c-2.034,0-4.069,1.695-4.069,4.069c0,2.034,1.695,4.069,4.069,4.069h45.775
	V291.264z"/>
<path style="fill:#393D47;" d="M159.364,286.856c-1.695,0-3.052,1.356-3.052,3.052v10.85c0,1.695,1.356,3.052,3.052,3.052
	c1.695,0,3.052-1.356,3.052-3.052v-10.85C162.755,288.212,161.06,286.856,159.364,286.856z"/>
</svg>